<svg xmlns="http://www.w3.org/2000/svg" viewBox="0 0 32 32" fill="none">
  <!-- Background circle -->
  <circle cx="16" cy="16" r="14" fill="#0891B2"/>
  <!-- Location pin icon -->
  <path fill="white" d="M16 8c-3.31 0-6 2.69-6 6 0 4.5 6 10 6 10s6-5.5 6-10c0-3.31-2.69-6-6-6zm0 8.5c-1.38 0-2.5-1.12-2.5-2.5s1.12-2.5 2.5-2.5 2.5 1.12 2.5 2.5-1.12 2.5-2.5 2.5z"/>
  <!-- Signal waves -->
  <path fill="white" fill-opacity="0.6" d="M23 11c.55 0 1 .45 1 1v.5c0 2-1.5 3.5-3 5-.33.33-.67.5-1 .5s-.67-.17-1-.5c1.17-1.17 2.5-2.33 2.5-4V12c0-.55.45-1 1-1z"/>
  <path fill="white" fill-opacity="0.4" d="M26 9c.55 0 1 .45 1 1v.5c0 3-2 5.5-4 7.5-.33.33-.67.5-1 .5s-.67-.17-1-.5c2-2 4-4.5 4-7V10c0-.55.45-1 1-1z"/>
</svg>